<svg xmlns="http://www.w3.org/2000/svg" xmlns:xlink="http://www.w3.org/1999/xlink" width="1290" zoomAndPan="magnify" viewBox="0 0 967.5 237.75" height="317" preserveAspectRatio="xMidYMid meet" version="1.0"><defs><g/></defs><g fill="#368647" fill-opacity="1"><g transform="translate(198.307355, 151.000833)"><g><path d="M 43.21875 0 C 30.445312 1.257812 20.847656 -0.59375 14.421875 -5.5625 C 8.003906 -10.539062 4.347656 -19.492188 3.453125 -32.421875 C 3.160156 -36.578125 3.234375 -40.363281 3.671875 -43.78125 C 4.117188 -47.195312 4.53125 -50.945312 4.90625 -55.03125 C 5.351562 -59.707031 6.578125 -63.515625 8.578125 -66.453125 C 10.585938 -69.390625 13.113281 -71.617188 16.15625 -73.140625 C 19.195312 -74.660156 22.441406 -75.734375 25.890625 -76.359375 C 29.347656 -76.992188 32.710938 -77.382812 35.984375 -77.53125 C 38.210938 -77.613281 40.773438 -77.46875 43.671875 -77.09375 C 46.566406 -76.71875 49.390625 -75.828125 52.140625 -74.421875 C 57.117188 -71.890625 59.71875 -68.210938 59.9375 -63.390625 C 60.082031 -61.378906 59.726562 -59.925781 58.875 -59.03125 C 58.019531 -58.144531 57.050781 -57.664062 55.96875 -57.59375 C 54.894531 -57.519531 54.140625 -57.632812 53.703125 -57.9375 C 52.734375 -58.457031 52.082031 -59.382812 51.75 -60.71875 C 51.414062 -62.050781 51.132812 -63.050781 50.90625 -63.71875 C 49.644531 -66.988281 47.007812 -68.695312 43 -68.84375 C 40.625 -68.84375 38.804688 -68.046875 37.546875 -66.453125 C 36.285156 -64.859375 35.394531 -62.925781 34.875 -60.65625 C 34.351562 -58.394531 34.054688 -56.296875 33.984375 -54.359375 C 33.828125 -51.617188 33.65625 -48.890625 33.46875 -46.171875 C 33.289062 -43.460938 33.238281 -40.695312 33.3125 -37.875 C 33.164062 -31.863281 33.273438 -25.625 33.640625 -19.15625 C 33.867188 -17.601562 34.390625 -16.007812 35.203125 -14.375 C 36.023438 -12.738281 37.234375 -11.398438 38.828125 -10.359375 C 40.421875 -9.316406 42.484375 -8.875 45.015625 -9.03125 C 46.941406 -8.875 48.570312 -9.578125 49.90625 -11.140625 C 51.25 -12.703125 52.289062 -14.929688 53.03125 -17.828125 C 53.550781 -19.535156 53.976562 -21.164062 54.3125 -22.71875 C 54.644531 -24.28125 55.179688 -25.488281 55.921875 -26.34375 C 56.671875 -27.195312 57.898438 -27.441406 59.609375 -27.078125 C 61.160156 -26.773438 62.066406 -25.953125 62.328125 -24.609375 C 62.585938 -23.273438 62.753906 -22.203125 62.828125 -21.390625 C 62.753906 -17.828125 61.84375 -14.484375 60.09375 -11.359375 C 58.351562 -8.242188 56.015625 -5.664062 53.078125 -3.625 C 50.148438 -1.582031 46.863281 -0.375 43.21875 0 Z M 43.21875 0 "/></g></g></g><g fill="#368647" fill-opacity="1"><g transform="translate(278.966516, 151.000833)"><g><path d="M 13.703125 0.5625 C 10.804688 0.332031 8.613281 -0.09375 7.125 -0.71875 C 5.644531 -1.351562 4.644531 -2.445312 4.125 -4 C 3.601562 -5.5625 3.34375 -7.832031 3.34375 -10.8125 C 3.488281 -15.1875 3.523438 -19.601562 3.453125 -24.0625 C 3.378906 -28.519531 3.34375 -32.898438 3.34375 -37.203125 C 3.414062 -41.585938 3.46875 -46.117188 3.5 -50.796875 C 3.539062 -55.472656 3.597656 -60.039062 3.671875 -64.5 C 3.742188 -67.914062 4.171875 -70.441406 4.953125 -72.078125 C 5.734375 -73.710938 7.070312 -74.789062 8.96875 -75.3125 C 10.863281 -75.832031 13.445312 -76.054688 16.71875 -75.984375 C 18.269531 -75.984375 19.992188 -76 21.890625 -76.03125 C 23.785156 -76.070312 25.566406 -75.925781 27.234375 -75.59375 C 28.910156 -75.257812 30.25 -74.570312 31.25 -73.53125 C 32.25 -72.488281 32.640625 -70.851562 32.421875 -68.625 C 32.785156 -63.945312 33.15625 -59.25 33.53125 -54.53125 C 33.90625 -49.8125 34.164062 -45.113281 34.3125 -40.4375 C 34.382812 -39.03125 34.90625 -37.859375 35.875 -36.921875 C 36.84375 -35.992188 38.03125 -35.53125 39.4375 -35.53125 C 40.769531 -35.53125 42.140625 -35.53125 43.546875 -35.53125 C 44.960938 -35.53125 46.34375 -35.492188 47.6875 -35.421875 C 49.164062 -35.421875 50.367188 -35.738281 51.296875 -36.375 C 52.222656 -37.007812 52.726562 -37.804688 52.8125 -38.765625 C 52.8125 -39.359375 52.828125 -39.929688 52.859375 -40.484375 C 52.898438 -41.046875 52.921875 -41.585938 52.921875 -42.109375 L 53.03125 -43.34375 L 53.25 -60.15625 C 53.175781 -64.3125 53.175781 -67.539062 53.25 -69.84375 C 53.320312 -72.15625 53.726562 -73.753906 54.46875 -74.640625 C 55.21875 -75.535156 56.59375 -75.984375 58.59375 -75.984375 C 60.457031 -75.984375 61.738281 -75.644531 62.4375 -74.96875 C 63.144531 -74.300781 63.570312 -73.207031 63.71875 -71.6875 C 63.875 -70.164062 63.988281 -68.101562 64.0625 -65.5 C 64.207031 -62.757812 64.316406 -59.472656 64.390625 -55.640625 C 64.460938 -51.816406 64.5 -48.007812 64.5 -44.21875 C 64.5 -40.4375 64.425781 -37.132812 64.28125 -34.3125 L 64.171875 -33.09375 C 64.171875 -32.5 64.1875 -31.863281 64.21875 -31.1875 C 64.257812 -30.519531 64.28125 -29.816406 64.28125 -29.078125 C 64.425781 -22.617188 64.476562 -17.472656 64.4375 -13.640625 C 64.40625 -9.816406 64.222656 -6.957031 63.890625 -5.0625 C 63.554688 -3.175781 62.960938 -1.9375 62.109375 -1.34375 C 61.253906 -0.75 60.082031 -0.453125 58.59375 -0.453125 C 56.8125 -0.453125 55.550781 -0.785156 54.8125 -1.453125 C 54.070312 -2.117188 53.644531 -3.226562 53.53125 -4.78125 C 53.414062 -6.34375 53.285156 -8.390625 53.140625 -10.921875 L 52.8125 -19.15625 C 52.726562 -20.644531 52.332031 -21.890625 51.625 -22.890625 C 50.925781 -23.890625 50.054688 -24.351562 49.015625 -24.28125 C 47.679688 -24.207031 46.195312 -24.148438 44.5625 -24.109375 C 42.925781 -24.078125 41.144531 -24.0625 39.21875 -24.0625 C 37.800781 -24.0625 36.628906 -23.671875 35.703125 -22.890625 C 34.773438 -22.109375 34.273438 -21.125 34.203125 -19.9375 C 34.273438 -14.8125 34.238281 -10.765625 34.09375 -7.796875 C 33.945312 -4.828125 33.296875 -2.671875 32.140625 -1.328125 C 30.984375 0.00390625 28.972656 0.757812 26.109375 0.9375 C 23.253906 1.125 19.117188 1 13.703125 0.5625 Z M 13.703125 0.5625 "/></g></g></g><g fill="#368647" fill-opacity="1"><g transform="translate(361.296756, 151.000833)"><g><path d="M 13.703125 0.5625 C 10.804688 0.332031 8.613281 -0.09375 7.125 -0.71875 C 5.644531 -1.351562 4.644531 -2.445312 4.125 -4 C 3.601562 -5.5625 3.34375 -7.832031 3.34375 -10.8125 C 3.488281 -15.1875 3.523438 -19.601562 3.453125 -24.0625 C 3.378906 -28.519531 3.34375 -32.898438 3.34375 -37.203125 C 3.414062 -41.585938 3.46875 -46.117188 3.5 -50.796875 C 3.539062 -55.472656 3.597656 -60.039062 3.671875 -64.5 C 3.742188 -67.914062 4.171875 -70.441406 4.953125 -72.078125 C 5.734375 -73.710938 7.070312 -74.789062 8.96875 -75.3125 C 10.863281 -75.832031 13.445312 -76.054688 16.71875 -75.984375 C 18.269531 -75.984375 19.992188 -76 21.890625 -76.03125 C 23.785156 -76.070312 25.566406 -75.925781 27.234375 -75.59375 C 28.910156 -75.257812 30.25 -74.570312 31.25 -73.53125 C 32.25 -72.488281 32.640625 -70.851562 32.421875 -68.625 C 33.015625 -60.53125 33.585938 -52.4375 34.140625 -44.34375 C 34.703125 -36.25 34.722656 -28.113281 34.203125 -19.9375 C 34.273438 -14.8125 34.238281 -10.765625 34.09375 -7.796875 C 33.945312 -4.828125 33.296875 -2.671875 32.140625 -1.328125 C 30.984375 0.00390625 28.972656 0.757812 26.109375 0.9375 C 23.253906 1.125 19.117188 1 13.703125 0.5625 Z M 13.703125 0.5625 "/></g></g></g><g fill="#368647" fill-opacity="1"><g transform="translate(454.881362, 151.000833)"><g><path d="M 41.890625 -0.453125 C 38.691406 0.585938 35.179688 1.109375 31.359375 1.109375 C 27.535156 1.109375 23.800781 0.679688 20.15625 -0.171875 C 16.519531 -1.023438 13.304688 -2.191406 10.515625 -3.671875 C 7.734375 -5.160156 5.691406 -6.832031 4.390625 -8.6875 C 3.097656 -10.539062 2.9375 -12.472656 3.90625 -14.484375 C 4.414062 -15.742188 5.226562 -16.503906 6.34375 -16.765625 C 7.457031 -17.023438 8.679688 -16.953125 10.015625 -16.546875 C 11.359375 -16.140625 12.515625 -15.488281 13.484375 -14.59375 C 15.117188 -13.101562 17.125 -12.003906 19.5 -11.296875 C 21.875 -10.597656 24.191406 -10.472656 26.453125 -10.921875 C 28.722656 -11.367188 30.453125 -12.554688 31.640625 -14.484375 C 32.453125 -16.046875 32.578125 -17.457031 32.015625 -18.71875 C 31.460938 -19.976562 30.445312 -21.316406 28.96875 -22.734375 C 27.707031 -23.992188 26.070312 -25.566406 24.0625 -27.453125 C 22.0625 -29.347656 19.945312 -31.410156 17.71875 -33.640625 C 15.488281 -35.867188 13.40625 -38.191406 11.46875 -40.609375 C 9.539062 -43.023438 7.960938 -45.421875 6.734375 -47.796875 C 5.515625 -50.171875 4.90625 -52.398438 4.90625 -54.484375 C 4.457031 -60.117188 5.421875 -64.71875 7.796875 -68.28125 C 10.171875 -71.851562 14.070312 -74.679688 19.5 -76.765625 C 21.050781 -77.359375 23.273438 -77.800781 26.171875 -78.09375 C 29.078125 -78.394531 32.21875 -78.46875 35.59375 -78.3125 C 38.96875 -78.164062 42.195312 -77.644531 45.28125 -76.75 C 48.363281 -75.863281 50.832031 -74.492188 52.6875 -72.640625 C 53.957031 -71.222656 55.054688 -69.789062 55.984375 -68.34375 C 56.910156 -66.894531 56.707031 -65.503906 55.375 -64.171875 C 54.40625 -62.835938 53.328125 -62.28125 52.140625 -62.5 C 50.953125 -62.71875 49.648438 -63.273438 48.234375 -64.171875 C 48.234375 -64.171875 47.878906 -64.390625 47.171875 -64.828125 C 46.472656 -65.273438 45.582031 -65.738281 44.5 -66.21875 C 43.425781 -66.707031 42.3125 -67.007812 41.15625 -67.125 C 40.007812 -67.238281 38.914062 -66.957031 37.875 -66.28125 C 36.914062 -65.6875 36.226562 -64.773438 35.8125 -63.546875 C 35.40625 -62.328125 35.351562 -60.640625 35.65625 -58.484375 C 36.019531 -55.367188 37.578125 -52.328125 40.328125 -49.359375 C 40.773438 -48.835938 41.6875 -47.851562 43.0625 -46.40625 C 44.4375 -44.957031 45.9375 -43.378906 47.5625 -41.671875 C 49.195312 -39.960938 50.703125 -38.398438 52.078125 -36.984375 C 53.453125 -35.578125 54.328125 -34.6875 54.703125 -34.3125 C 57.523438 -31.039062 59.269531 -27.863281 59.9375 -24.78125 C 60.601562 -21.707031 60.507812 -18.8125 59.65625 -16.09375 C 58.800781 -13.382812 57.425781 -10.953125 55.53125 -8.796875 C 53.632812 -6.648438 51.476562 -4.867188 49.0625 -3.453125 C 46.65625 -2.046875 44.265625 -1.046875 41.890625 -0.453125 Z M 41.890625 -0.453125 "/></g></g></g><g fill="#368647" fill-opacity="1"><g transform="translate(533.08964, 151.000833)"><g><path d="M 34.640625 0.453125 C 31.378906 0.222656 28.039062 -0.257812 24.625 -1 C 21.207031 -1.738281 17.992188 -2.941406 14.984375 -4.609375 C 11.972656 -6.285156 9.5 -8.609375 7.5625 -11.578125 C 5.632812 -14.554688 4.5625 -18.382812 4.34375 -23.0625 C 4.125 -27.21875 3.863281 -31.019531 3.5625 -34.46875 C 3.269531 -37.925781 3.304688 -41.695312 3.671875 -45.78125 C 5.015625 -58.632812 8.972656 -67.4375 15.546875 -72.1875 C 22.117188 -76.945312 31.789062 -78.472656 44.5625 -76.765625 C 48.195312 -76.316406 51.554688 -75.03125 54.640625 -72.90625 C 57.722656 -70.789062 59.859375 -68.101562 61.046875 -64.84375 C 62.085938 -62.019531 62.90625 -58.488281 63.5 -54.25 C 64.09375 -50.019531 64.425781 -45.640625 64.5 -41.109375 C 64.570312 -36.578125 64.347656 -32.414062 63.828125 -28.625 C 63.535156 -26.550781 63.238281 -24.195312 62.9375 -21.5625 C 62.644531 -18.925781 62.203125 -16.304688 61.609375 -13.703125 C 61.015625 -11.097656 60.101562 -8.789062 58.875 -6.78125 C 57.65625 -4.78125 56.003906 -3.335938 53.921875 -2.453125 L 52.578125 -1.890625 C 50.796875 -1.148438 48.789062 -0.59375 46.5625 -0.21875 C 44.332031 0.144531 42.160156 0.363281 40.046875 0.4375 C 37.929688 0.519531 36.128906 0.523438 34.640625 0.453125 Z M 33.3125 -39.21875 C 33.082031 -36.46875 33.023438 -33.734375 33.140625 -31.015625 C 33.253906 -28.304688 33.382812 -25.546875 33.53125 -22.734375 C 33.53125 -20.796875 33.734375 -18.675781 34.140625 -16.375 C 34.554688 -14.070312 35.359375 -12.082031 36.546875 -10.40625 C 37.734375 -8.738281 39.515625 -7.90625 41.890625 -7.90625 C 44.859375 -7.90625 47.082031 -8.238281 48.5625 -8.90625 C 50.050781 -9.582031 51.171875 -10.585938 51.921875 -11.921875 C 52.660156 -13.328125 53.457031 -15.457031 54.3125 -18.3125 C 55.164062 -21.175781 55.832031 -24.632812 56.3125 -28.6875 C 56.800781 -32.738281 56.875 -37.285156 56.53125 -42.328125 C 56.195312 -47.378906 55.253906 -52.800781 53.703125 -58.59375 C 52.953125 -61.488281 51.984375 -63.753906 50.796875 -65.390625 C 49.609375 -67.023438 48.050781 -67.804688 46.125 -67.734375 C 43.59375 -67.953125 41.507812 -67.5625 39.875 -66.5625 C 38.25 -65.5625 36.988281 -64.257812 36.09375 -62.65625 C 35.207031 -61.0625 34.613281 -59.488281 34.3125 -57.9375 C 33.789062 -51.46875 33.457031 -45.226562 33.3125 -39.21875 Z M 33.3125 -39.21875 "/></g></g></g><g fill="#368647" fill-opacity="1"><g transform="translate(615.419881, 151.000833)"><g><path d="M 13.703125 0.5625 C 10.804688 0.332031 8.613281 -0.09375 7.125 -0.71875 C 5.644531 -1.351562 4.644531 -2.445312 4.125 -4 C 3.601562 -5.5625 3.34375 -7.832031 3.34375 -10.8125 C 3.488281 -15.1875 3.523438 -19.601562 3.453125 -24.0625 C 3.378906 -28.519531 3.34375 -32.898438 3.34375 -37.203125 C 3.414062 -41.585938 3.46875 -46.117188 3.5 -50.796875 C 3.539062 -55.472656 3.597656 -60.039062 3.671875 -64.5 C 3.742188 -67.914062 4.171875 -70.441406 4.953125 -72.078125 C 5.734375 -73.710938 7.070312 -74.789062 8.96875 -75.3125 C 10.863281 -75.832031 13.445312 -76.054688 16.71875 -75.984375 C 18.195312 -75.984375 19.789062 -76 21.5 -76.03125 C 23.207031 -76.070312 24.859375 -75.976562 26.453125 -75.75 C 28.054688 -75.53125 29.375 -75.015625 30.40625 -74.203125 C 31.445312 -73.828125 32.597656 -72.929688 33.859375 -71.515625 C 35.128906 -70.109375 36.46875 -67.769531 37.875 -64.5 C 38.25 -63.457031 38.734375 -62.359375 39.328125 -61.203125 C 39.921875 -60.054688 40.515625 -58.816406 41.109375 -57.484375 L 53.59375 -31.1875 C 53.8125 -30.820312 54.140625 -30.691406 54.578125 -30.796875 C 55.023438 -30.910156 55.289062 -31.15625 55.375 -31.53125 C 55.375 -35.613281 55.484375 -39.140625 55.703125 -42.109375 L 55.8125 -43.34375 C 55.8125 -43.632812 55.828125 -44.578125 55.859375 -46.171875 C 55.898438 -47.773438 55.9375 -49.597656 55.96875 -51.640625 C 56.007812 -53.679688 56.03125 -55.519531 56.03125 -57.15625 C 56.03125 -58.789062 56.03125 -59.789062 56.03125 -60.15625 C 55.957031 -64.3125 55.957031 -67.539062 56.03125 -69.84375 C 56.113281 -72.15625 56.523438 -73.753906 57.265625 -74.640625 C 58.003906 -75.535156 59.378906 -75.984375 61.390625 -75.984375 C 63.242188 -75.984375 64.519531 -75.644531 65.21875 -74.96875 C 65.925781 -74.300781 66.351562 -73.207031 66.5 -71.6875 C 66.65625 -70.164062 66.769531 -68.101562 66.84375 -65.5 C 66.988281 -62.757812 67.132812 -59.472656 67.28125 -55.640625 C 67.4375 -51.816406 67.515625 -48.007812 67.515625 -44.21875 C 67.515625 -40.4375 67.363281 -37.132812 67.0625 -34.3125 L 66.953125 -33.09375 C 66.878906 -32.5 66.878906 -31.863281 66.953125 -31.1875 C 67.023438 -30.519531 67.0625 -29.816406 67.0625 -29.078125 C 67.21875 -22.617188 67.273438 -17.472656 67.234375 -13.640625 C 67.191406 -9.816406 67.003906 -6.957031 66.671875 -5.0625 C 66.335938 -3.175781 65.742188 -1.9375 64.890625 -1.34375 C 64.035156 -0.75 62.867188 -0.453125 61.390625 -0.453125 C 59.828125 -0.453125 58.691406 -0.691406 57.984375 -1.171875 C 57.273438 -1.648438 56.773438 -2.410156 56.484375 -3.453125 C 56.035156 -4.046875 55.566406 -4.769531 55.078125 -5.625 C 54.597656 -6.476562 54.0625 -7.5 53.46875 -8.6875 C 52.875 -9.800781 51.945312 -11.617188 50.6875 -14.140625 C 49.425781 -16.671875 47.941406 -19.585938 46.234375 -22.890625 C 44.523438 -26.203125 42.722656 -29.734375 40.828125 -33.484375 C 38.929688 -37.234375 37.09375 -40.890625 35.3125 -44.453125 C 35.164062 -44.828125 34.847656 -44.9375 34.359375 -44.78125 C 33.878906 -44.632812 33.640625 -44.375 33.640625 -44 C 33.796875 -39.988281 33.910156 -35.976562 33.984375 -31.96875 C 34.054688 -27.957031 34.128906 -23.945312 34.203125 -19.9375 C 34.273438 -14.8125 34.238281 -10.765625 34.09375 -7.796875 C 33.945312 -4.828125 33.296875 -2.671875 32.140625 -1.328125 C 30.984375 0.00390625 28.972656 0.757812 26.109375 0.9375 C 23.253906 1.125 19.117188 1 13.703125 0.5625 Z M 66.28125 -6.015625 C 66.582031 -5.640625 66.660156 -5.675781 66.515625 -6.125 C 66.429688 -6.351562 66.351562 -6.316406 66.28125 -6.015625 Z M 66.28125 -6.015625 "/></g></g></g><g fill="#368647" fill-opacity="1"><g transform="translate(700.758028, 151.000833)"><g><path d="M 34.640625 0.453125 C 31.378906 0.222656 28.039062 -0.257812 24.625 -1 C 21.207031 -1.738281 17.992188 -2.941406 14.984375 -4.609375 C 11.972656 -6.285156 9.5 -8.609375 7.5625 -11.578125 C 5.632812 -14.554688 4.5625 -18.382812 4.34375 -23.0625 C 4.125 -27.21875 3.863281 -31.019531 3.5625 -34.46875 C 3.269531 -37.925781 3.304688 -41.695312 3.671875 -45.78125 C 5.015625 -58.632812 8.972656 -67.4375 15.546875 -72.1875 C 22.117188 -76.945312 31.789062 -78.472656 44.5625 -76.765625 C 48.195312 -76.316406 51.554688 -75.03125 54.640625 -72.90625 C 57.722656 -70.789062 59.859375 -68.101562 61.046875 -64.84375 C 62.085938 -62.019531 62.90625 -58.488281 63.5 -54.25 C 64.09375 -50.019531 64.425781 -45.640625 64.5 -41.109375 C 64.570312 -36.578125 64.347656 -32.414062 63.828125 -28.625 C 63.535156 -26.550781 63.238281 -24.195312 62.9375 -21.5625 C 62.644531 -18.925781 62.203125 -16.304688 61.609375 -13.703125 C 61.015625 -11.097656 60.101562 -8.789062 58.875 -6.78125 C 57.65625 -4.78125 56.003906 -3.335938 53.921875 -2.453125 L 52.578125 -1.890625 C 50.796875 -1.148438 48.789062 -0.59375 46.5625 -0.21875 C 44.332031 0.144531 42.160156 0.363281 40.046875 0.4375 C 37.929688 0.519531 36.128906 0.523438 34.640625 0.453125 Z M 33.3125 -39.21875 C 33.082031 -36.46875 33.023438 -33.734375 33.140625 -31.015625 C 33.253906 -28.304688 33.382812 -25.546875 33.53125 -22.734375 C 33.53125 -20.796875 33.734375 -18.675781 34.140625 -16.375 C 34.554688 -14.070312 35.359375 -12.082031 36.546875 -10.40625 C 37.734375 -8.738281 39.515625 -7.90625 41.890625 -7.90625 C 44.859375 -7.90625 47.082031 -8.238281 48.5625 -8.90625 C 50.050781 -9.582031 51.171875 -10.585938 51.921875 -11.921875 C 52.660156 -13.328125 53.457031 -15.457031 54.3125 -18.3125 C 55.164062 -21.175781 55.832031 -24.632812 56.3125 -28.6875 C 56.800781 -32.738281 56.875 -37.285156 56.53125 -42.328125 C 56.195312 -47.378906 55.253906 -52.800781 53.703125 -58.59375 C 52.953125 -61.488281 51.984375 -63.753906 50.796875 -65.390625 C 49.609375 -67.023438 48.050781 -67.804688 46.125 -67.734375 C 43.59375 -67.953125 41.507812 -67.5625 39.875 -66.5625 C 38.25 -65.5625 36.988281 -64.257812 36.09375 -62.65625 C 35.207031 -61.0625 34.613281 -59.488281 34.3125 -57.9375 C 33.789062 -51.46875 33.457031 -45.226562 33.3125 -39.21875 Z M 33.3125 -39.21875 "/></g></g></g></svg>